<?xml version="1.0" standalone="no"?>
<!DOCTYPE svg PUBLIC "-//W3C//DTD SVG 20010904//EN"
 "http://www.w3.org/TR/2001/REC-SVG-20010904/DTD/svg10.dtd">
<svg version="1.0" xmlns="http://www.w3.org/2000/svg"
 width="600.000000pt" height="599.000000pt" viewBox="0 0 600.000000 599.000000"
 preserveAspectRatio="xMidYMid meet">

<g transform="translate(0.000000,599.000000) scale(0.100000,-0.100000)"
fill="#000000" stroke="none">
<path d="M2892 5604 c-737 -80 -1268 -321 -1732 -784 -274 -273 -432 -504
-555 -810 -341 -846 -197 -1887 364 -2634 151 -200 399 -447 588 -586 586
-427 1468 -600 2213 -433 392 87 710 248 1042 526 509 427 799 957 897 1642
34 234 64 652 37 498 -20 -111 -92 -314 -165 -466 -323 -672 -950 -1209 -1614
-1381 -180 -47 -304 -61 -537 -61 -243 0 -363 15 -575 69 -537 138 -954 441
-1268 921 -355 544 -458 1232 -278 1862 71 247 169 463 294 643 418 603 797
880 1344 984 143 27 127 30 -55 10z"/>
</g>
</svg>
